<svg viewBox="0 0 200.000000 200.000000" width="100%" height="100%" class="phone-hang-up">
    <g transform="translate(0.000000,200.000000) scale(0.100000,-0.100000)" fill="currentColor" stroke="none">
        <path d="M799 1330 c-149 -11 -309 -41 -399 -77 -184 -73 -265 -173 -293 -358
-17 -113 5 -174 76 -213 27 -14 56 -16 171 -15 227 4 244 16 261 189 9 94 15
120 30 130 15 11 88 14 357 14 315 0 339 -1 356 -18 15 -15 20 -41 26 -117 11
-163 32 -184 193 -197 191 -15 267 6 305 82 23 46 23 109 -2 205 -35 135 -96
211 -222 273 -173 85 -514 125 -859 102z" />
    </g>
</svg>