<svg viewBox="0 0 20 20" fill="none" xmlns="http://www.w3.org/2000/svg" width="auto" height="auto" class="share-screen">
  <g>
    <path
      d="M9.37516 13.0448H10.6252V9.36208L12.1668 10.891L13.0579 10L10.0002 6.95521L6.95537 10L7.84641 10.8781L9.37516 9.34937V13.0448ZM3.58995 16.25C3.16898 16.25 2.81266 16.1042 2.521 15.8125C2.22933 15.5208 2.0835 15.1645 2.0835 14.7435V5.25646C2.0835 4.83549 2.22933 4.47917 2.521 4.1875C2.81266 3.89583 3.16898 3.75 3.58995 3.75H16.4104C16.8313 3.75 17.1877 3.89583 17.4793 4.1875C17.771 4.47917 17.9168 4.83549 17.9168 5.25646V14.7435C17.9168 15.1645 17.771 15.5208 17.4793 15.8125C17.1877 16.1042 16.8313 16.25 16.4104 16.25H3.58995ZM3.58995 15H16.4104C16.4745 15 16.5333 14.9733 16.5866 14.9198C16.6401 14.8665 16.6668 14.8077 16.6668 14.7435V5.25646C16.6668 5.19229 16.6401 5.13354 16.5866 5.08021C16.5333 5.02674 16.4745 5 16.4104 5H3.58995C3.52579 5 3.46704 5.02674 3.4137 5.08021C3.36023 5.13354 3.3335 5.19229 3.3335 5.25646V14.7435C3.3335 14.8077 3.36023 14.8665 3.4137 14.9198C3.46704 14.9733 3.52579 15 3.58995 15Z"
      fill="currentColor" />
  </g>
</svg>